<svg id="visual" viewBox="0 0 960 540" width="960" height="540" xmlns="http://www.w3.org/2000/svg" xmlns:xlink="http://www.w3.org/1999/xlink" version="1.1"><g transform="translate(479.5051406549941 271.2293084575752)"><path d="M87.7 -120.6C115.9 -100.3 142.6 -77.6 159.8 -46.7C177.1 -15.8 184.8 23.4 174.6 57.4C164.4 91.3 136.3 120.1 104.2 137.2C72.1 154.2 36.1 159.6 1.6 157.5C-32.9 155.3 -65.8 145.6 -95.6 127.8C-125.4 110 -152.1 84 -166.4 51.4C-180.7 18.7 -182.6 -20.6 -168.7 -52.1C-154.7 -83.7 -125 -107.4 -94.2 -126.9C-63.5 -146.4 -31.7 -161.7 -1 -160.3C29.8 -159 59.5 -140.9 87.7 -120.6" fill="#FFFFFF"></path></g></svg>